<?xml version="1.0" standalone="no"?>
<!DOCTYPE svg PUBLIC "-//W3C//DTD SVG 20010904//EN"
 "http://www.w3.org/TR/2001/REC-SVG-20010904/DTD/svg10.dtd">
<svg version="1.0" xmlns="http://www.w3.org/2000/svg"
 width="1280.000000pt" height="1063.000000pt" viewBox="0 0 1280.000000 1063.000000"
 preserveAspectRatio="xMidYMid meet">
<g transform="translate(0.000000,1063.000000) scale(0.100000,-0.100000)"
fill="#000000" stroke="none">
<path d="M80 10617 c-75 -26 -80 -33 -80 -122 0 -44 4 -138 10 -210 5 -71 14
-411 20 -755 6 -344 15 -825 20 -1070 5 -245 14 -690 20 -990 6 -300 15 -752
20 -1005 5 -253 14 -716 20 -1030 6 -313 15 -738 20 -944 l9 -374 68 -69 c61
-61 71 -68 107 -68 22 0 874 63 1894 141 1020 77 1861 138 1869 135 13 -5 14
-69 8 -464 -4 -251 -12 -462 -17 -468 -4 -7 -48 -15 -96 -19 -48 -3 -179 -15
-292 -25 -113 -10 -320 -28 -460 -41 -164 -14 -263 -27 -277 -36 -21 -12 -23
-21 -23 -86 l0 -72 476 -393 475 -394 262 27 c395 40 1001 101 1382 140 412
42 1018 103 1485 150 190 19 359 37 377 40 46 8 63 38 63 111 l0 62 -47 35
c-27 19 -195 117 -375 217 -180 100 -338 190 -350 200 -20 17 -21 19 -5 20 40
0 796 -197 1267 -332 390 -111 869 -270 1140 -378 239 -95 542 -239 537 -254
-4 -13 -88 -25 -517 -71 -184 -20 -434 -47 -555 -60 -121 -13 -389 -43 -595
-65 -206 -22 -454 -49 -550 -60 -96 -11 -344 -38 -550 -60 -206 -22 -454 -49
-550 -60 -96 -11 -344 -38 -550 -60 -206 -22 -454 -49 -550 -60 -96 -11 -303
-33 -460 -50 -157 -17 -404 -44 -550 -60 -146 -16 -393 -43 -550 -60 -157 -17
-404 -44 -550 -60 -146 -16 -393 -43 -550 -60 -282 -30 -365 -39 -920 -101
-157 -17 -293 -35 -302 -40 -15 -8 -18 -24 -18 -93 l0 -84 448 -578 c260 -336
462 -586 479 -597 23 -13 37 -15 59 -8 16 6 119 21 229 35 110 14 307 39 438
56 130 16 344 44 475 60 130 17 324 42 430 55 105 14 279 36 385 50 105 13
299 38 430 55 130 16 344 44 475 60 130 17 324 42 430 55 105 14 279 36 385
50 105 13 299 38 430 55 130 16 344 44 475 60 130 17 324 42 430 55 105 14
279 36 385 50 105 13 299 38 430 55 130 16 344 44 475 60 130 17 324 42 430
55 105 14 279 36 385 50 105 13 299 38 430 55 130 16 344 44 475 60 130 17
323 42 427 55 515 66 687 88 1010 129 193 25 496 63 675 86 179 22 334 45 346
49 20 9 31 53 37 151 2 23 -52 50 -951 467 l-954 443 -146 -15 c-81 -9 -268
-29 -417 -45 -148 -17 -344 -38 -435 -47 l-165 -17 -150 76 c-607 307 -1391
557 -3028 966 -96 25 -139 42 -237 97 l-121 67 -101 -11 -102 -11 -255 69
c-141 39 -283 78 -316 89 l-60 18 3 344 c1 190 6 348 11 353 4 4 806 68 1782
142 976 74 1925 146 2109 160 280 22 338 29 352 43 14 14 19 51 28 212 6 107
15 277 20 378 6 100 14 265 20 367 5 102 14 268 20 370 9 173 15 277 40 730 5
99 14 264 20 368 5 103 14 270 20 372 5 102 14 268 20 370 5 102 15 269 20
373 6 103 15 266 20 362 5 96 14 259 20 363 10 181 18 335 40 747 6 107 15
272 20 365 23 403 24 459 8 472 -11 9 -407 15 -1653 23 -4459 28 -5211 33
-7815 56 -248 2 -355 -1 -380 -9z m5503 -7072 c110 -30 203 -57 206 -60 2 -3
0 -9 -5 -14 -12 -11 -419 -45 -433 -36 -12 7 -15 147 -4 158 11 12 32 8 236
-48z"/>
</g>
</svg>
